<svg width="238" height="49" viewBox="0 0 238 49" fill="none" xmlns="http://www.w3.org/2000/svg">
<path d="M1 12.9011V48H216.857L237 26.0769V1H11.0714L1 12.9011Z" stroke="url(#paint0_linear_101_706)"/>
<path d="M42.8947 28.3574C42.5666 28.4941 42.2362 28.6172 41.9035 28.7266C41.5708 28.8359 41.2267 28.9294 40.8712 29.0068C40.5158 29.0889 40.1398 29.1504 39.7433 29.1914C39.3514 29.2324 38.9298 29.2529 38.4787 29.2529C37.5216 29.2529 36.6398 29.1504 35.8332 28.9453C35.0311 28.7402 34.3384 28.4326 33.755 28.0225C33.1763 27.6077 32.7251 27.0928 32.4015 26.4775C32.078 25.8577 31.9162 25.1354 31.9162 24.3105C31.9162 23.4857 32.078 22.7656 32.4015 22.1504C32.7251 21.5306 33.1763 21.0156 33.755 20.6055C34.3384 20.1908 35.0311 19.8809 35.8332 19.6758C36.6398 19.4707 37.5216 19.3682 38.4787 19.3682C38.9298 19.3682 39.3514 19.3887 39.7433 19.4297C40.1398 19.4707 40.5158 19.5322 40.8712 19.6143C41.2267 19.6917 41.5708 19.7852 41.9035 19.8945C42.2362 20.0039 42.5666 20.127 42.8947 20.2637V22.5469C42.6349 22.4056 42.3615 22.2666 42.0744 22.1299C41.7873 21.9886 41.4705 21.8633 41.1242 21.7539C40.7778 21.64 40.3973 21.5488 39.9826 21.4805C39.5679 21.4076 39.1007 21.3711 38.5812 21.3711C37.7837 21.3711 37.1206 21.4531 36.5919 21.6172C36.0679 21.7812 35.6486 22 35.3341 22.2734C35.0197 22.5469 34.7987 22.8613 34.6711 23.2168C34.5434 23.5677 34.4796 23.9323 34.4796 24.3105C34.4796 24.5612 34.507 24.8096 34.5617 25.0557C34.6164 25.2972 34.7075 25.5273 34.8351 25.7461C34.9627 25.9603 35.1291 26.1585 35.3341 26.3408C35.5392 26.5231 35.7944 26.6803 36.0998 26.8125C36.4051 26.9447 36.7606 27.0495 37.1662 27.127C37.5763 27.1999 38.048 27.2363 38.5812 27.2363C39.1007 27.2363 39.5679 27.2044 39.9826 27.1406C40.3973 27.0723 40.7778 26.9834 41.1242 26.874C41.4705 26.7646 41.7873 26.6416 42.0744 26.5049C42.3615 26.3636 42.6349 26.2201 42.8947 26.0742V28.3574ZM57.5542 24.3105C57.5542 25.1172 57.4061 25.8304 57.1099 26.4502C56.8137 27.0654 56.3898 27.5804 55.8384 27.9951C55.287 28.4098 54.617 28.7243 53.8286 28.9385C53.0448 29.1481 52.1629 29.2529 51.1831 29.2529C50.2033 29.2529 49.3169 29.1481 48.5239 28.9385C47.7355 28.7243 47.0633 28.4098 46.5073 27.9951C45.9514 27.5804 45.523 27.0654 45.2222 26.4502C44.9214 25.8304 44.771 25.1172 44.771 24.3105C44.771 23.5039 44.9214 22.793 45.2222 22.1777C45.523 21.5579 45.9514 21.0407 46.5073 20.626C47.0633 20.2113 47.7355 19.8991 48.5239 19.6895C49.3169 19.4753 50.2033 19.3682 51.1831 19.3682C52.1629 19.3682 53.0448 19.4753 53.8286 19.6895C54.617 19.8991 55.287 20.2113 55.8384 20.626C56.3898 21.0407 56.8137 21.5579 57.1099 22.1777C57.4061 22.793 57.5542 23.5039 57.5542 24.3105ZM54.9907 24.3105C54.9907 23.9596 54.9338 23.611 54.8198 23.2646C54.7105 22.9137 54.5122 22.5993 54.2251 22.3213C53.9426 22.0433 53.5552 21.8177 53.063 21.6445C52.5708 21.4714 51.9442 21.3848 51.1831 21.3848C50.6727 21.3848 50.2238 21.4258 49.8364 21.5078C49.4491 21.5853 49.1141 21.6947 48.8316 21.8359C48.549 21.9772 48.312 22.1436 48.1206 22.335C47.9292 22.5218 47.7765 22.7246 47.6626 22.9434C47.5487 23.1576 47.4667 23.3831 47.4165 23.6201C47.3709 23.8525 47.3482 24.0827 47.3482 24.3105C47.3482 24.543 47.3709 24.7777 47.4165 25.0146C47.4667 25.2516 47.5487 25.4795 47.6626 25.6982C47.7765 25.9124 47.9292 26.113 48.1206 26.2998C48.312 26.4867 48.549 26.6507 48.8316 26.792C49.1141 26.9287 49.4491 27.0381 49.8364 27.1201C50.2238 27.1976 50.6727 27.2363 51.1831 27.2363C51.9442 27.2363 52.5708 27.1497 53.063 26.9766C53.5552 26.8034 53.9426 26.5778 54.2251 26.2998C54.5122 26.0218 54.7105 25.7096 54.8198 25.3633C54.9338 25.0124 54.9907 24.6615 54.9907 24.3105ZM68.8778 29L62.5409 22.5469V29H60.0048V19.6074H62.7596L69.1034 26.0879V19.6074H71.6259V29H68.8778ZM83.5784 29L77.2414 22.5469V29H74.7053V19.6074H77.4602L83.8039 26.0879V19.6074H86.3264V29H83.5784ZM89.4059 29V19.6074H98.9146V21.6104H92.0103V23.1621H98.5592V25.165H92.0103V26.9971H99.0103V29H89.4059ZM111.954 28.3574C111.626 28.4941 111.296 28.6172 110.963 28.7266C110.63 28.8359 110.286 28.9294 109.931 29.0068C109.575 29.0889 109.199 29.1504 108.803 29.1914C108.411 29.2324 107.989 29.2529 107.538 29.2529C106.581 29.2529 105.699 29.1504 104.893 28.9453C104.09 28.7402 103.398 28.4326 102.814 28.0225C102.236 27.6077 101.784 27.0928 101.461 26.4775C101.137 25.8577 100.976 25.1354 100.976 24.3105C100.976 23.4857 101.137 22.7656 101.461 22.1504C101.784 21.5306 102.236 21.0156 102.814 20.6055C103.398 20.1908 104.09 19.8809 104.893 19.6758C105.699 19.4707 106.581 19.3682 107.538 19.3682C107.989 19.3682 108.411 19.3887 108.803 19.4297C109.199 19.4707 109.575 19.5322 109.931 19.6143C110.286 19.6917 110.63 19.7852 110.963 19.8945C111.296 20.0039 111.626 20.127 111.954 20.2637V22.5469C111.694 22.4056 111.421 22.2666 111.134 22.1299C110.847 21.9886 110.53 21.8633 110.184 21.7539C109.837 21.64 109.457 21.5488 109.042 21.4805C108.627 21.4076 108.16 21.3711 107.641 21.3711C106.843 21.3711 106.18 21.4531 105.651 21.6172C105.127 21.7812 104.708 22 104.394 22.2734C104.079 22.5469 103.858 22.8613 103.73 23.2168C103.603 23.5677 103.539 23.9323 103.539 24.3105C103.539 24.5612 103.566 24.8096 103.621 25.0557C103.676 25.2972 103.767 25.5273 103.894 25.7461C104.022 25.9603 104.188 26.1585 104.394 26.3408C104.599 26.5231 104.854 26.6803 105.159 26.8125C105.464 26.9447 105.82 27.0495 106.226 27.127C106.636 27.1999 107.107 27.2363 107.641 27.2363C108.16 27.2363 108.627 27.2044 109.042 27.1406C109.457 27.0723 109.837 26.9834 110.184 26.874C110.53 26.7646 110.847 26.6416 111.134 26.5049C111.421 26.3636 111.694 26.2201 111.954 26.0742V28.3574ZM119.723 21.6514V29H117.187V21.6514H113.201V19.6074H123.715V21.6514H119.723ZM140.066 19.6074L142.466 26.1289L145.064 19.6074H147.695L143.922 29H141.106L138.651 22.6836L136.204 29H133.388L129.607 19.6074H132.246L134.789 25.9922L137.243 19.6074H140.066ZM156.729 27.2227H151.493L150.611 29H147.781L152.696 19.6074H155.526L160.441 29H157.611L156.729 27.2227ZM152.402 25.3906H155.833L154.124 21.9316L152.402 25.3906ZM162.119 29V19.6074H164.655V26.9424H171.511V29H162.119ZM173.689 29V19.6074H176.225V26.9424H183.081V29H173.689ZM185.258 29V19.6074H194.767V21.6104H187.863V23.1621H194.412V25.165H187.863V26.9971H194.863V29H185.258ZM202.721 21.6514V29H200.184V21.6514H196.199V19.6074H206.713V21.6514H202.721Z" fill="#D8D8D8"/>
<defs>
<linearGradient id="paint0_linear_101_706" x1="8.4007" y1="9.13461" x2="244.478" y2="41.4263" gradientUnits="userSpaceOnUse">
<stop stop-color="#E41414"/>
<stop offset="1" stop-color="#960000"/>
</linearGradient>
</defs>
</svg>
