<svg width="208" height="49" viewBox="0 0 208 49" fill="none" xmlns="http://www.w3.org/2000/svg">
<path d="M1 12.5495V47.6484H186.857L207 25.7254V0.648438H11.0714L1 12.5495Z" stroke="url(#paint0_linear_180_397)"/>
<path d="M73.9305 25.4834C73.9305 25.9528 73.8143 26.3949 73.5818 26.8096C73.3494 27.2243 73.0008 27.5866 72.5359 27.8965C72.0711 28.2064 71.49 28.4525 70.7928 28.6348C70.1001 28.8125 69.2889 28.9014 68.3592 28.9014C67.4295 28.9014 66.6137 28.8125 65.9119 28.6348C65.2146 28.4525 64.6336 28.2064 64.1688 27.8965C63.7039 27.5866 63.3553 27.2243 63.1229 26.8096C62.8904 26.3949 62.7742 25.9528 62.7742 25.4834V19.2559H65.3035V24.5742C65.3035 24.8887 65.3423 25.1872 65.4197 25.4697C65.5018 25.7477 65.6521 25.9915 65.8709 26.2012C66.0942 26.4108 66.4041 26.5771 66.8006 26.7002C67.2016 26.8232 67.7212 26.8848 68.3592 26.8848C68.9926 26.8848 69.5076 26.8232 69.9041 26.7002C70.3006 26.5771 70.6082 26.4108 70.827 26.2012C71.0503 25.9915 71.2007 25.7477 71.2781 25.4697C71.3556 25.1872 71.3943 24.8887 71.3943 24.5742V19.2559H73.9305V25.4834ZM87.1446 28.6484L80.8077 22.1953V28.6484H78.2716V19.2559H81.0264L87.3702 25.7363V19.2559H89.8927V28.6484H87.1446ZM106.244 28.6484V22.0518L102.758 28.6484H100.325L96.8382 22.0518V28.6484H94.3021V19.2559H97.7474L101.541 26.3652L105.335 19.2559H108.767V28.6484H106.244ZM113.176 28.6484V19.2559H115.713V28.6484H113.176ZM129.002 28.6484L122.665 22.1953V28.6484H120.129V19.2559H122.884L129.227 25.7363V19.2559H131.75V28.6484H129.002ZM141.423 21.2998V28.6484H138.887V21.2998H134.902V19.2559H145.415V21.2998H141.423Z" fill="#D8D8D8"/>
<defs>
<linearGradient id="paint0_linear_180_397" x1="7.45993" y1="8.78305" x2="214.432" y2="33.4949" gradientUnits="userSpaceOnUse">
<stop stop-color="#E41414"/>
<stop offset="1" stop-color="#960000"/>
</linearGradient>
</defs>
</svg>
